<svg width="228" height="233" viewBox="0 0 228 233" fill="none" xmlns="http://www.w3.org/2000/svg">
<g id="&#208;&#155;&#208;&#176;&#208;&#191;&#209;&#139; &#208;&#177;&#208;&#187;&#208;&#190;&#208;&#186; 4">
<path id="&#208;&#155;&#208;&#176;&#208;&#191;&#208;&#176;" d="M31.5079 31.5517C36.5304 26.935 36.2612 12.4515 31.6254 7.40825C29.5935 5.08596 26.6513 5.28125 23.8012 7.90104C20.7132 10.7395 20.1706 14.2517 17.6964 16.5259C15.1968 18.8235 11.6452 19.0747 8.58882 21.8841C5.7982 24.4492 5.29811 27.4157 7.38389 29.6848C12.0698 34.676 26.4835 36.17 31.5079 31.5517ZM41.5763 23.8096C44.3033 25.4593 47.6824 25.0546 49.1063 22.9053C50.5303 20.756 49.4729 17.6797 46.7468 16.0315C44.015 14.3766 40.636 14.7813 39.212 16.9306C37.788 19.0799 38.8549 22.1571 41.5763 23.8096ZM37.4607 30.0898C35.9933 32.4141 37.4634 35.9821 40.8626 38.1725C44.2618 40.363 48.058 40.0946 49.5865 37.8216C51.054 35.4973 49.5838 31.9293 46.1847 29.7388C42.8381 27.6082 38.9319 27.753 37.4607 30.0898ZM21.4065 48.3643C23.6141 47.0675 24.3552 43.793 22.9406 40.937C21.5254 38.0803 18.5504 36.7641 16.289 38.0024C14.0814 39.2992 13.3485 42.5661 14.7549 45.4297C16.175 48.2867 19.2033 49.5491 21.4065 48.3643ZM29.5508 37.3605C27.1601 38.5826 26.6246 42.5114 28.4677 46.0241C30.3108 49.5368 33.7964 51.3609 36.2359 50.0934C38.6266 48.8713 39.162 44.9425 37.3189 41.4298C35.4777 37.9154 31.9906 36.0903 29.5508 37.3605Z" fill="#1594FB"/>
<path id="&#208;&#155;&#208;&#176;&#208;&#191;&#208;&#176;_2" d="M199.508 205.552C204.53 200.935 204.261 186.452 199.625 181.408C197.594 179.086 194.651 179.281 191.801 181.901C188.713 184.74 188.171 188.252 185.696 190.526C183.197 192.824 179.645 193.075 176.589 195.884C173.798 198.449 173.298 201.416 175.384 203.685C180.07 208.676 194.484 210.17 199.508 205.552ZM209.576 197.81C212.303 199.459 215.682 199.055 217.106 196.905C218.53 194.756 217.473 191.68 214.747 190.032C212.015 188.377 208.636 188.781 207.212 190.931C205.788 193.08 206.855 196.157 209.576 197.81ZM205.461 204.09C203.993 206.414 205.463 209.982 208.863 212.173C212.262 214.363 216.058 214.095 217.587 211.822C219.054 209.497 217.584 205.929 214.185 203.739C210.838 201.608 206.932 201.753 205.461 204.09ZM189.406 222.364C191.614 221.068 192.355 217.793 190.941 214.937C189.525 212.08 186.55 210.764 184.289 212.002C182.081 213.299 181.348 216.566 182.755 219.43C184.175 222.287 187.203 223.549 189.406 222.364ZM197.551 211.361C195.16 212.583 194.625 216.511 196.468 220.024C198.311 223.537 201.796 225.361 204.236 224.093C206.627 222.871 207.162 218.943 205.319 215.43C203.478 211.915 199.991 210.09 197.551 211.361Z" fill="#1594FB"/>
<path id="&#208;&#155;&#208;&#176;&#208;&#191;&#208;&#176;_3" d="M77.0181 151.255C82.0406 146.638 81.7714 132.155 77.1357 127.111C75.1038 124.789 72.1615 124.984 69.3114 127.604C66.2234 130.443 65.6809 133.955 63.2066 136.229C60.7071 138.527 57.1555 138.778 54.0991 141.587C51.3085 144.152 50.8084 147.119 52.8941 149.388C57.58 154.379 71.9938 155.873 77.0181 151.255ZM87.0866 143.513C89.8136 145.162 93.1926 144.758 94.6166 142.608C96.0406 140.459 94.9832 137.383 92.2571 135.735C89.5252 134.08 86.1462 134.484 84.7222 136.634C83.2982 138.783 84.3651 141.86 87.0866 143.513ZM82.971 149.793C81.5035 152.117 82.9737 155.685 86.3728 157.876C89.772 160.066 93.5682 159.798 95.0968 157.525C96.5642 155.2 95.0941 151.632 91.6949 149.442C88.3483 147.311 84.4421 147.456 82.971 149.793ZM66.9167 168.068C69.1243 166.771 69.8655 163.496 68.4508 160.64C67.0356 157.783 64.0606 156.467 61.7992 157.706C59.5917 159.002 58.8587 162.269 60.2651 165.133C61.6853 167.99 64.7136 169.252 66.9167 168.068ZM75.061 157.064C72.6703 158.286 72.1349 162.215 73.978 165.727C75.821 169.24 79.3067 171.064 81.7461 169.797C84.1368 168.575 84.6723 164.646 82.8292 161.133C80.988 157.619 77.5009 155.793 75.061 157.064Z" fill="#1594FB"/>
</g>
</svg>
