<svg width="18" height="18" viewBox="0 0 18 18" fill="none" xmlns="http://www.w3.org/2000/svg">
    <path d="M5.6873 6.41662C6.28584 7.66324 7.10176 8.83162 8.13507 9.86493C9.16838 10.8982 10.3368 11.7142 11.5834 12.3127C11.6906 12.3642 11.7442 12.3899 11.8121 12.4097C12.0532 12.48 12.3492 12.4295 12.5534 12.2833C12.6108 12.2422 12.66 12.193 12.7583 12.0947C13.059 11.794 13.2093 11.6437 13.3604 11.5454C13.9305 11.1748 14.6654 11.1748 15.2355 11.5454C15.3866 11.6437 15.537 11.794 15.8376 12.0947L16.0052 12.2623C16.4622 12.7193 16.6907 12.9478 16.8148 13.1932C17.0617 13.6813 17.0617 14.2577 16.8148 14.7458C16.6907 14.9912 16.4622 15.2197 16.0052 15.6767L15.8696 15.8123C15.4142 16.2678 15.1864 16.4955 14.8768 16.6694C14.5333 16.8624 13.9997 17.0012 13.6056 17C13.2505 16.9989 13.0078 16.93 12.5224 16.7923C9.91378 16.0519 7.45226 14.6549 5.39869 12.6013C3.34511 10.5477 1.94812 8.08622 1.20772 5.47761C1.06995 4.99221 1.00106 4.7495 1.00001 4.39439C0.998835 4.00033 1.1376 3.46673 1.33059 3.12317C1.50452 2.81356 1.73225 2.58583 2.1877 2.13037L2.32326 1.99481C2.78028 1.53779 3.00879 1.30928 3.25421 1.18515C3.74229 0.938283 4.3187 0.938283 4.80678 1.18515C5.05219 1.30928 5.2807 1.53779 5.73772 1.99481L5.90531 2.16239C6.20595 2.46304 6.35628 2.61337 6.45456 2.76453C6.8252 3.33459 6.8252 4.0695 6.45456 4.63956C6.35628 4.79072 6.20595 4.94105 5.90531 5.24169C5.807 5.34 5.75785 5.38915 5.71671 5.44661C5.5705 5.65079 5.52002 5.94684 5.5903 6.18793C5.61008 6.25577 5.63582 6.30939 5.6873 6.41662Z" stroke="#898989" stroke-linecap="round" stroke-linejoin="round"/>
</svg>
