<svg width="22" height="22" viewBox="0 0 22 22" fill="none" xmlns="http://www.w3.org/2000/svg">
<path id="Icon" d="M3.00002 20.8196C3.6026 21.0022 4.41649 21.0022 5.8 21.0022H16.2C17.5835 21.0022 18.3974 21.0022 19 20.8196M3.00002 20.8196C2.87082 20.7805 2.75133 20.7329 2.63803 20.6752C2.07354 20.3876 1.6146 19.9287 1.32698 19.3642C1 18.7224 1 17.8824 1 16.2022V5.8022C1 4.12204 1 3.28196 1.32698 2.64023C1.6146 2.07574 2.07354 1.6168 2.63803 1.32918C3.27976 1.0022 4.11984 1.0022 5.8 1.0022H16.2C17.8802 1.0022 18.7202 1.0022 19.362 1.32918C19.9265 1.6168 20.3854 2.07574 20.673 2.64023C21 3.28196 21 4.12204 21 5.8022V16.2022C21 17.8824 21 18.7224 20.673 19.3642C20.3854 19.9287 19.9265 20.3876 19.362 20.6752C19.2487 20.7329 19.1292 20.7805 19 20.8196M3.00002 20.8196C3.00035 20.0103 3.00521 19.5821 3.07686 19.2218C3.39249 17.6351 4.63288 16.3947 6.21964 16.0791C6.60603 16.0022 7.07069 16.0022 8 16.0022H14C14.9293 16.0022 15.394 16.0022 15.7804 16.0791C17.3671 16.3947 18.6075 17.6351 18.9231 19.2218C18.9948 19.5821 18.9996 20.0103 19 20.8196M15 8.5022C15 10.7113 13.2091 12.5022 11 12.5022C8.79086 12.5022 7 10.7113 7 8.5022C7 6.29306 8.79086 4.5022 11 4.5022C13.2091 4.5022 15 6.29306 15 8.5022Z" stroke="#898989" stroke-linecap="round" stroke-linejoin="round"/>
</svg>
