<svg width="112" height="83" viewBox="0 0 112 83" fill="none" xmlns="http://www.w3.org/2000/svg">
<path d="M1 74.9405C1 66.4196 7.90761 59.512 16.4286 59.512H36.7342C45.2552 59.512 52.1628 66.4196 52.1628 74.9405V79.9998H1V74.9405Z" fill="white"/>
<ellipse cx="26.5816" cy="28.3534" rx="14.6179" ry="16.6463" fill="white"/>
<path d="M52.1628 79.9997C52.1628 74.7049 52.1628 72.0575 51.612 69.9032C50.372 65.0529 47.173 61.2573 43.085 59.786C41.2694 59.1325 39.0381 59.1325 34.5756 59.1325H18.5872C14.1247 59.1325 11.8934 59.1325 10.0777 59.786C5.98983 61.2573 2.79083 65.0529 1.55077 69.9032C1 72.0575 1 74.7049 1 79.9997M40.9709 28.7802C40.9709 38.2095 34.5285 45.8534 26.5814 45.8534C18.6343 45.8534 12.1919 38.2095 12.1919 28.7802C12.1919 19.3509 18.6343 11.707 26.5814 11.707C34.5285 11.707 40.9709 19.3509 40.9709 28.7802Z" stroke="black" stroke-width="1.71429" stroke-linecap="round" stroke-linejoin="round"/>
<path d="M26.2148 11.2822C28.0129 11.2822 30.0029 11.6086 31.6796 12.3613L32.0107 12.5176C33.6726 13.3422 35.2891 14.4854 36.5927 15.9521L36.8495 16.25C38.1403 17.7961 39.4944 19.7289 40.2577 21.6973L40.4023 22.0908C40.7607 23.1275 40.8497 24.4365 41.0439 25.7637C41.1382 26.4083 41.2581 27.05 41.455 27.6191C41.5543 27.906 41.6754 28.1825 41.828 28.4355L35.2274 29.1211C29.6109 29.7042 23.9513 29.7278 18.3319 29.1924L17.2089 29.0781L11.2226 28.4277C11.3947 28.1038 11.5059 27.8027 11.5741 27.501C11.68 27.033 11.6776 26.5839 11.6776 26.1123C11.6776 25.1789 11.6758 23.9457 12.4062 21.6543L12.4052 21.6533C13.0414 19.8187 14.0287 18.3196 15.1864 16.8701L15.6942 16.25C16.9605 14.7333 18.4554 13.5497 20.0907 12.6865L20.4189 12.5176C22.1604 11.6535 24.2966 11.2823 26.2148 11.2822Z" fill="#FCD638" stroke="black" stroke-width="0.857143"/>
<path d="M17.8106 23.6584V23.6584C23.4515 25.8546 29.7111 25.8546 35.3521 23.6584V23.6584" stroke="black" stroke-width="0.857143" stroke-linecap="round"/>
<path d="M25.4786 10.4285H27.6807C28.3753 10.4285 28.9357 10.9772 28.9659 11.655L28.9649 11.7927L28.3692 21.5222H24.7901L24.1954 11.7927C24.1501 11.0532 24.7377 10.4285 25.4786 10.4285Z" fill="#FCD638" stroke="black" stroke-width="0.857143"/>
<path d="M25.0736 21.0972H28.0857L28.0457 23.6581H25.1222L25.0736 21.0972Z" fill="#FCD638"/>
<line x1="0.428571" y1="-0.428571" x2="1.78665" y2="-0.428571" transform="matrix(-0.718581 -0.695443 0.57863 -0.81559 41.3285 25.199)" stroke="black" stroke-width="0.857143" stroke-linecap="round"/>
<line x1="0.428571" y1="-0.428571" x2="1.78665" y2="-0.428571" transform="matrix(0.718581 -0.695443 -0.57863 -0.81559 11.232 25.199)" stroke="black" stroke-width="0.857143" stroke-linecap="round"/>
<path d="M59.8365 75.9405C59.8365 67.4196 66.7441 60.512 75.2651 60.512H95.5708C104.092 60.512 110.999 67.4196 110.999 75.9405V80.9998H59.8365V75.9405Z" fill="white"/>
<ellipse cx="85.4182" cy="29.3534" rx="14.6179" ry="16.6463" fill="white"/>
<path d="M110.999 80.9997C110.999 75.7049 110.999 73.0575 110.448 70.9032C109.208 66.0529 106.009 62.2573 101.921 60.786C100.105 60.1325 97.874 60.1325 93.4114 60.1325H77.4231C72.9605 60.1325 70.7292 60.1325 68.9136 60.786C64.8257 62.2573 61.6267 66.0529 60.3866 70.9032C59.8358 73.0575 59.8358 75.7049 59.8358 80.9997M99.8068 29.7802C99.8068 39.2095 93.3644 46.8534 85.4172 46.8534C77.4701 46.8534 71.0277 39.2095 71.0277 29.7802C71.0277 20.3509 77.4701 12.707 85.4172 12.707C93.3644 12.707 99.8068 20.3509 99.8068 29.7802Z" stroke="black" stroke-width="1.71429" stroke-linecap="round" stroke-linejoin="round"/>
<path d="M85.0519 12.2822C86.85 12.2822 88.8401 12.6086 90.5167 13.3613L90.8478 13.5176C92.5098 14.3422 94.1262 15.4854 95.4298 16.9521L95.6866 17.25C96.9774 18.7961 98.3315 20.7289 99.0948 22.6973L99.2394 23.0908C99.5979 24.1275 99.6868 25.4365 99.881 26.7637C99.9753 27.4083 100.095 28.05 100.292 28.6191C100.391 28.906 100.512 29.1825 100.665 29.4355L94.0646 30.1211C88.4481 30.7042 82.7885 30.7278 77.1691 30.1924L76.046 30.0781L70.0597 29.4277C70.2319 29.1038 70.343 28.8027 70.4113 28.501C70.5171 28.033 70.5148 27.5839 70.5148 27.1123C70.5148 26.1789 70.5129 24.9457 71.2433 22.6543L71.2423 22.6533C71.8785 20.8187 72.8659 19.3196 74.0236 17.8701L74.5314 17.25C75.7976 15.7333 77.2926 14.5497 78.9279 13.6865L79.256 13.5176C80.9975 12.6535 83.1338 12.2823 85.0519 12.2822Z" fill="#FCD638" stroke="black" stroke-width="0.857143"/>
<path d="M76.6477 24.6584V24.6584C82.2887 26.8546 88.5483 26.8546 94.1892 24.6584V24.6584" stroke="black" stroke-width="0.857143" stroke-linecap="round"/>
<path d="M84.3157 11.4285H86.5179C87.2124 11.4285 87.7729 11.9772 87.803 12.655L87.802 12.7927L87.2063 22.5222H83.6272L83.0325 12.7927C82.9873 12.0532 83.5748 11.4285 84.3157 11.4285Z" fill="#FCD638" stroke="black" stroke-width="0.857143"/>
<path d="M83.9108 22.0972H86.9228L86.8829 24.6581H83.9593L83.9108 22.0972Z" fill="#FCD638"/>
<line x1="0.428571" y1="-0.428571" x2="1.78665" y2="-0.428571" transform="matrix(-0.718581 -0.695443 0.57863 -0.81559 100.166 26.199)" stroke="black" stroke-width="0.857143" stroke-linecap="round"/>
<line x1="0.428571" y1="-0.428571" x2="1.78665" y2="-0.428571" transform="matrix(0.718581 -0.695443 -0.57863 -0.81559 70.0692 26.199)" stroke="black" stroke-width="0.857143" stroke-linecap="round"/>
<path d="M24.4846 76.75C24.4846 66.3947 32.8792 58 43.2346 58H67.9116C78.2669 58 86.6616 66.3947 86.6616 76.75V83H24.4846V76.75Z" fill="white"/>
<ellipse cx="55.5705" cy="21.5" rx="17.0543" ry="19.5" fill="white"/>
<path d="M85.4162 82C85.4162 75.7975 85.4162 72.6962 84.7737 70.1727C83.3269 64.4909 79.5948 60.0446 74.8255 58.321C72.7073 57.5555 70.1041 57.5555 64.8978 57.5555H46.2447C41.0384 57.5555 38.4352 57.5555 36.317 58.321C31.5478 60.0446 27.8156 64.4909 26.3689 70.1727C25.7263 72.6962 25.7263 75.7975 25.7263 82M72.3591 22C72.3591 33.0457 64.8429 42 55.5713 42C46.2996 42 38.7835 33.0457 38.7835 22C38.7835 10.9543 46.2996 2 55.5713 2C64.8429 2 72.3591 10.9543 72.3591 22Z" stroke="black" stroke-width="2" stroke-linecap="round" stroke-linejoin="round"/>
<path d="M55.1446 1.5C57.2423 1.5 59.5636 1.88288 61.5196 2.76465L61.9063 2.94727C63.9745 3.97761 65.9818 5.43234 67.5508 7.31934C69.1571 9.25121 70.8478 11.6992 71.6963 14.1631C72.1146 15.3778 72.218 16.9109 72.4444 18.4648C72.5544 19.2201 72.6942 19.9721 72.9239 20.6387C73.0401 20.976 73.1833 21.3003 73.3624 21.5977L65.7022 22.3965C59.1233 23.0823 52.4935 23.1101 45.9112 22.4805L44.5957 22.3457L37.6514 21.5879C37.8531 21.2076 37.9838 20.8549 38.0635 20.501C38.1869 19.9532 38.1846 19.4276 38.1846 18.875C38.1846 17.7828 38.1817 16.3405 39.0303 13.6631C39.8786 11.2 41.2631 9.25225 42.8702 7.31934C44.3476 5.54238 46.0922 4.15565 48 3.14453L48.3838 2.94727C50.2886 1.99839 52.5977 1.5564 54.7227 1.50488L55.1446 1.5Z" fill="#FCD638" stroke="black"/>
<path d="M45.3388 16V16C51.9181 18.5719 59.2246 18.5719 65.8039 16V16" stroke="black" stroke-linecap="round"/>
<path d="M54.2865 0.5H56.8568C57.6671 0.500057 58.3199 1.14059 58.3548 1.93164L58.3538 2.09082L57.6585 13.5H53.4837L52.7884 2.09082C52.7394 1.28219 53.3391 0.591933 54.1263 0.508789L54.2865 0.5Z" fill="#FCD638" stroke="black"/>
<path d="M53.8126 13H57.3267L57.2801 16H53.8692L53.8126 13Z" fill="#FCD638"/>
<line x1="0.5" y1="-0.5" x2="2.08953" y2="-0.5" transform="matrix(-0.717164 -0.696904 0.577063 -0.8167 72.7772 17.8047)" stroke="black" stroke-linecap="round"/>
<line x1="0.5" y1="-0.5" x2="2.08953" y2="-0.5" transform="matrix(0.717164 -0.696904 -0.577063 -0.8167 37.6644 17.8047)" stroke="black" stroke-linecap="round"/>
</svg>
