<svg width="104" height="85" viewBox="0 0 104 85" fill="none" xmlns="http://www.w3.org/2000/svg">
<ellipse cx="34.9997" cy="28.2878" rx="7.93333" ry="7.9589" fill="#FCD638"/>
<path d="M14.6 24.8767V38.5205M55.4 18.0548V31.6986M52 1C60.3256 1 64.8287 2.27829 67.0692 3.2698C67.3676 3.40184 67.5168 3.46786 67.9474 3.88012C68.2055 4.12723 68.6766 4.85231 68.7978 5.18896C69 5.75057 69 6.05756 69 6.67154V43.3339C69 46.4337 69 47.9836 68.5367 48.7802C68.0653 49.5906 67.6108 49.9673 66.7286 50.2788C65.8613 50.5849 64.1107 50.2475 60.6094 49.5726C58.1587 49.1002 55.2522 48.7534 52 48.7534C41.8 48.7534 31.6 55.5753 18 55.5753C9.67439 55.5753 5.17135 54.297 2.9308 53.3055C2.63242 53.1735 2.48323 53.1075 2.05264 52.6952C1.79453 52.4481 1.3234 51.723 1.2022 51.3864C1 50.8248 1 50.5178 1 49.9038L1 13.2414C1 10.1417 1 8.59178 1.46335 7.79512C1.93467 6.98474 2.38921 6.60801 3.2714 6.29658C4.13866 5.99041 5.88932 6.32786 9.39062 7.00277C11.8413 7.47516 14.7478 7.82191 18 7.82191C28.2 7.82191 38.4 1 52 1ZM43.5 28.2877C43.5 32.9972 39.6944 36.8151 35 36.8151C30.3056 36.8151 26.5 32.9972 26.5 28.2877C26.5 23.5781 30.3056 19.7603 35 19.7603C39.6944 19.7603 43.5 23.5781 43.5 28.2877Z" stroke="black" stroke-width="2" stroke-linecap="round" stroke-linejoin="round"/>
<path d="M34.5436 34.56V22.34H35.6096V34.56H34.5436ZM34.9466 33.13C34.236 33.13 33.5556 33.0303 32.9056 32.831C32.2556 32.623 31.74 32.3587 31.3586 32.038L31.9436 30.725C32.3076 31.011 32.7583 31.2493 33.2956 31.44C33.833 31.6307 34.3833 31.726 34.9466 31.726C35.4233 31.726 35.809 31.674 36.1036 31.57C36.3983 31.466 36.615 31.3273 36.7536 31.154C36.8923 30.972 36.9616 30.7683 36.9616 30.543C36.9616 30.2657 36.862 30.0447 36.6626 29.88C36.4633 29.7067 36.2033 29.5723 35.8826 29.477C35.5706 29.373 35.2196 29.2777 34.8296 29.191C34.4483 29.1043 34.0626 29.0047 33.6726 28.892C33.2913 28.7707 32.9403 28.619 32.6196 28.437C32.3076 28.2463 32.052 27.995 31.8526 27.683C31.6533 27.371 31.5536 26.9723 31.5536 26.487C31.5536 25.993 31.6836 25.5423 31.9436 25.135C32.2123 24.719 32.6153 24.3897 33.1526 24.147C33.6986 23.8957 34.3876 23.77 35.2196 23.77C35.7656 23.77 36.3073 23.8393 36.8446 23.978C37.382 24.1167 37.85 24.316 38.2486 24.576L37.7156 25.889C37.3083 25.6463 36.888 25.4687 36.4546 25.356C36.0213 25.2347 35.6053 25.174 35.2066 25.174C34.7386 25.174 34.3573 25.2303 34.0626 25.343C33.7766 25.4557 33.5643 25.603 33.4256 25.785C33.2956 25.967 33.2306 26.175 33.2306 26.409C33.2306 26.6863 33.326 26.9117 33.5166 27.085C33.716 27.2497 33.9716 27.3797 34.2836 27.475C34.6043 27.5703 34.9596 27.6657 35.3496 27.761C35.7396 27.8477 36.1253 27.9473 36.5066 28.06C36.8966 28.1727 37.2476 28.32 37.5596 28.502C37.8803 28.684 38.136 28.931 38.3266 29.243C38.526 29.555 38.6256 29.9493 38.6256 30.426C38.6256 30.9113 38.4913 31.362 38.2226 31.778C37.9626 32.1853 37.5596 32.5147 37.0136 32.766C36.4676 33.0087 35.7786 33.13 34.9466 33.13Z" fill="black"/>
<path d="M61.6491 12.2679V6.62785H61.9491V12.2679H61.6491ZM61.7751 11.5839C61.4631 11.5839 61.1631 11.5339 60.8751 11.4339C60.5911 11.3299 60.3711 11.1979 60.2151 11.0379L60.3891 10.6959C60.5371 10.8399 60.7351 10.9619 60.9831 11.0619C61.2351 11.1579 61.4991 11.2059 61.7751 11.2059C62.0391 11.2059 62.2531 11.1739 62.4171 11.1099C62.5851 11.0419 62.7071 10.9519 62.7831 10.8399C62.8631 10.7279 62.9031 10.6039 62.9031 10.4679C62.9031 10.3039 62.8551 10.1719 62.7591 10.0719C62.6671 9.97185 62.5451 9.89385 62.3931 9.83785C62.2411 9.77785 62.0731 9.72585 61.8891 9.68185C61.7051 9.63785 61.5211 9.59185 61.3371 9.54385C61.1531 9.49185 60.9831 9.42385 60.8271 9.33985C60.6751 9.25585 60.5511 9.14585 60.4551 9.00985C60.3631 8.86985 60.3171 8.68785 60.3171 8.46385C60.3171 8.25585 60.3711 8.06585 60.4791 7.89385C60.5911 7.71785 60.7611 7.57785 60.9891 7.47385C61.2171 7.36585 61.5091 7.31185 61.8651 7.31185C62.1011 7.31185 62.3351 7.34585 62.5671 7.41385C62.7991 7.47785 62.9991 7.56785 63.1671 7.68385L63.0171 8.03785C62.8371 7.91785 62.6451 7.82985 62.4411 7.77385C62.2411 7.71785 62.0471 7.68985 61.8591 7.68985C61.6071 7.68985 61.3991 7.72385 61.2351 7.79185C61.0711 7.85985 60.9491 7.95185 60.8691 8.06785C60.7931 8.17985 60.7551 8.30785 60.7551 8.45185C60.7551 8.61585 60.8011 8.74785 60.8931 8.84785C60.9891 8.94785 61.1131 9.02585 61.2651 9.08185C61.4211 9.13785 61.5911 9.18785 61.7751 9.23185C61.9591 9.27585 62.1411 9.32385 62.3211 9.37585C62.5051 9.42785 62.6731 9.49585 62.8251 9.57985C62.9811 9.65985 63.1051 9.76785 63.1971 9.90385C63.2931 10.0399 63.3411 10.2179 63.3411 10.4379C63.3411 10.6419 63.2851 10.8319 63.1731 11.0079C63.0611 11.1799 62.8891 11.3199 62.6571 11.4279C62.4291 11.5319 62.1351 11.5839 61.7751 11.5839Z" fill="black"/>
<path d="M7.25024 48.6514V43.0114H7.55024V48.6514H7.25024ZM7.37624 47.9674C7.06424 47.9674 6.76424 47.9174 6.47624 47.8174C6.19224 47.7134 5.97224 47.5814 5.81624 47.4214L5.99024 47.0794C6.13824 47.2234 6.33624 47.3454 6.58424 47.4454C6.83624 47.5414 7.10024 47.5894 7.37624 47.5894C7.64024 47.5894 7.85424 47.5574 8.01824 47.4934C8.18624 47.4254 8.30824 47.3354 8.38424 47.2234C8.46424 47.1114 8.50424 46.9874 8.50424 46.8514C8.50424 46.6874 8.45624 46.5554 8.36024 46.4554C8.26824 46.3554 8.14624 46.2774 7.99424 46.2214C7.84224 46.1614 7.67424 46.1094 7.49024 46.0654C7.30624 46.0214 7.12224 45.9754 6.93824 45.9274C6.75424 45.8754 6.58424 45.8074 6.42824 45.7234C6.27624 45.6394 6.15224 45.5294 6.05624 45.3934C5.96424 45.2534 5.91824 45.0714 5.91824 44.8474C5.91824 44.6394 5.97224 44.4494 6.08024 44.2774C6.19224 44.1014 6.36224 43.9614 6.59024 43.8574C6.81824 43.7494 7.11024 43.6954 7.46624 43.6954C7.70224 43.6954 7.93624 43.7294 8.16824 43.7974C8.40024 43.8614 8.60024 43.9514 8.76824 44.0674L8.61824 44.4214C8.43824 44.3014 8.24624 44.2134 8.04224 44.1574C7.84224 44.1014 7.64824 44.0734 7.46024 44.0734C7.20824 44.0734 7.00024 44.1074 6.83624 44.1754C6.67224 44.2434 6.55024 44.3354 6.47024 44.4514C6.39424 44.5634 6.35624 44.6914 6.35624 44.8354C6.35624 44.9994 6.40224 45.1314 6.49424 45.2314C6.59024 45.3314 6.71424 45.4094 6.86624 45.4654C7.02224 45.5214 7.19224 45.5714 7.37624 45.6154C7.56024 45.6594 7.74224 45.7074 7.92224 45.7594C8.10624 45.8114 8.27424 45.8794 8.42624 45.9634C8.58224 46.0434 8.70624 46.1514 8.79824 46.2874C8.89424 46.4234 8.94224 46.6014 8.94224 46.8214C8.94224 47.0254 8.88624 47.2154 8.77424 47.3914C8.66224 47.5634 8.49024 47.7034 8.25824 47.8114C8.03024 47.9154 7.73624 47.9674 7.37624 47.9674Z" fill="black"/>
<path d="M35.8873 40C35.8873 37.7909 37.6782 36 39.8873 36H97.6753C99.8844 36 101.675 37.7909 101.675 40V53H35.8873V40Z" fill="#FCD638"/>
<path d="M103 53.3014H34.9998M65.5998 66.9452H48.5998M34.9998 47.1617L34.9998 73.0849C34.9998 76.9056 34.9998 78.8159 35.7409 80.2752C36.3929 81.5588 37.4331 82.6024 38.7126 83.2565C40.1672 84 42.0714 84 45.8798 84L92.1198 84C95.9281 84 97.8323 84 99.2869 83.2565C100.566 82.6024 101.607 81.5588 102.259 80.2752C103 78.8159 103 76.9056 103 73.0849V47.1617C103 43.341 103 41.4307 102.259 39.9714C101.607 38.6878 100.566 37.6442 99.2869 36.9901C97.8323 36.2466 95.9281 36.2466 92.1198 36.2466L45.8798 36.2466C42.0714 36.2466 40.1672 36.2466 38.7126 36.9901C37.4331 37.6442 36.3929 38.6878 35.7409 39.9714C34.9998 41.4307 34.9998 43.341 34.9998 47.1617Z" stroke="black" stroke-width="2" stroke-linecap="round" stroke-linejoin="round"/>
</svg>
