<svg width="68" height="83" viewBox="0 0 68 83" fill="none" xmlns="http://www.w3.org/2000/svg">
<path d="M66.9502 13.6699C66.9352 13.7902 66.9183 13.9311 66.8926 14.0938C66.7524 14.9791 66.4348 16.4999 65.7236 18.9736C64.3898 23.6131 61.6839 31.5593 56.208 44.8789L55.0752 47.6152C48.8519 62.5532 43.3944 71.2188 39.5264 76.1309C37.5931 78.586 36.059 80.1017 35.0264 80.9932C34.6041 81.3577 34.2651 81.6172 34.0176 81.7949C33.7046 81.5639 33.2518 81.2114 32.6797 80.7139C31.4649 79.6574 29.707 77.9477 27.5859 75.3652C23.4762 70.3617 17.9979 62.0761 12.4629 48.9092L11.9277 47.6201C6.1901 33.649 3.45828 24.9467 2.16113 19.7578C1.5129 17.1647 1.22452 15.4558 1.09766 14.4111C1.06168 14.1148 1.03892 13.8721 1.02441 13.6787L34 1.06934L66.9502 13.6699Z" fill="white" stroke="black" stroke-width="2"/>
<path d="M34.001 6L60.9986 18.425C60.9986 18.425 55.3292 39.2776 49.4282 51.5583C44.3654 62.0947 34.001 77 34.001 77V6Z" fill="#FCD638"/>
<path d="M52.9952 64C57.9652 64 61.9943 68.0294 61.9943 73C61.9943 77.9706 57.9652 82 52.9952 82C48.0253 81.9999 43.9962 77.9706 43.9962 73C43.9962 68.0294 48.0253 64.0001 52.9952 64Z" fill="#FCD638" stroke="black" stroke-width="2"/>
<path d="M57.9958 70L51.1208 77L47.9958 73.8182" stroke="black" stroke-width="2" stroke-linecap="round" stroke-linejoin="round"/>
</svg>
