<svg width="109" height="92" viewBox="0 0 109 92" fill="none" xmlns="http://www.w3.org/2000/svg">
<circle cx="89" cy="72" r="19" fill="#FCD638" stroke="black" stroke-width="2"/>
<path d="M80 63L97 80M97 63L80 80M104.75 26.9375H1M104.75 37.3125V17.6C104.75 11.7895 104.75 8.88419 103.619 6.66486C102.625 4.71268 101.037 3.1255 99.0852 2.13082C96.8658 1 93.9605 1 88.15 1H17.6C11.7895 1 8.88418 1 6.66485 2.13081C4.71267 3.12549 3.1255 4.71267 2.13081 6.66485C1 8.88418 1 11.7895 1 17.6V57.025C1 62.8355 1 65.7408 2.13081 67.9601C3.12549 69.9123 4.71267 71.4995 6.66485 72.4942C8.88418 73.625 11.7895 73.625 17.6 73.625H52.875" stroke="black" stroke-width="2" stroke-linecap="round" stroke-linejoin="round"/>
<circle cx="89" cy="72" r="19" stroke="black" stroke-width="2"/>
</svg>
