<svg width="86" height="86" viewBox="0 0 86 86" fill="none" xmlns="http://www.w3.org/2000/svg">
<rect x="2" y="48" width="15" height="36" fill="#FCD638"/>
<circle cx="57" cy="29" r="12" fill="#FCD638"/>
<path d="M17.8 76.9235H28.7632C30.1926 76.9235 31.6133 77.0945 32.999 77.4365L44.583 80.2664C47.0965 80.8819 49.7149 80.9418 52.2546 80.4459L65.0625 77.9409C68.4459 77.2783 71.5583 75.6497 73.9974 73.2643L83.0591 64.4028C85.647 61.8764 85.647 57.7769 83.0591 55.2463C80.7292 52.9678 77.0399 52.7114 74.404 54.6435L63.8429 62.3894C62.3304 63.5008 60.4901 64.0993 58.5973 64.0993H48.3991L54.8905 64.099C58.5493 64.099 61.513 61.2007 61.513 57.6228V56.3275C61.513 53.3566 59.4454 50.7661 56.4991 50.0479L46.4801 47.5985C44.8496 47.2009 43.1798 47 41.5012 47C37.449 47 30.114 50.3728 30.114 50.3728L17.8 55.5495M1 53.7556L1 78.2444C1 80.6091 1 81.7914 1.45777 82.6946C1.86044 83.4891 2.50296 84.135 3.29324 84.5398C4.19167 85 5.36778 85 7.72 85H11.08C13.4322 85 14.6083 85 15.5068 84.5398C16.297 84.135 16.9396 83.4891 17.3422 82.6946C17.8 81.7914 17.8 80.6091 17.8 78.2444V53.7556C17.8 51.3909 17.8 50.2086 17.3422 49.3054C16.9396 48.5109 16.297 47.865 15.5068 47.4602C14.6083 47 13.4322 47 11.08 47L7.72 47C5.36778 47 4.19167 47 3.29324 47.4602C2.50296 47.865 1.86044 48.5109 1.45777 49.3054C1 50.2086 1 51.3909 1 53.7556Z" stroke="black" stroke-width="2" stroke-linecap="round" stroke-linejoin="round"/>
<path d="M53 9L57 5M57 5L53 1M57 5H53C48.5817 5 45 8.58172 45 13M77 33L73 37M73 37L77 41M73 37H77C81.4183 37 85 33.4183 85 29M61.3781 10C62.7102 4.82432 67.4085 1 73 1C79.6274 1 85 6.37258 85 13C85 18.5915 81.1757 23.2897 76.0001 24.6219M69 29C69 35.6274 63.6274 41 57 41C50.3726 41 45 35.6274 45 29C45 22.3726 50.3726 17 57 17C63.6274 17 69 22.3726 69 29Z" stroke="black" stroke-width="2" stroke-linecap="round" stroke-linejoin="round"/>
</svg>
