<svg width="70" height="81" viewBox="0 0 70 81" fill="none" xmlns="http://www.w3.org/2000/svg">
<path d="M26.3201 12.4325L21.1122 17.6403M36.7358 22.8482L31.528 28.0561M47.1515 33.2639L41.9437 38.4718M57.5672 43.6796L52.3594 48.8875M67.7551 54.3235L54.3235 67.755C53.6361 68.4425 53.2923 68.7863 52.896 68.915C52.5473 69.0283 52.1717 69.0283 51.8231 68.915C51.4267 68.7863 51.083 68.4425 50.3955 67.7551L2.24495 19.6045C1.55749 18.917 1.21375 18.5733 1.08496 18.1769C0.971677 17.8283 0.971677 17.4527 1.08496 17.104C1.21375 16.7077 1.55748 16.3639 2.24495 15.6765L15.6765 2.24495C16.3639 1.55748 16.7077 1.21375 17.104 1.08496C17.4527 0.971679 17.8283 0.971679 18.1769 1.08496C18.5733 1.21375 18.917 1.55748 19.6045 2.24495L67.755 50.3955C68.4425 51.083 68.7862 51.4267 68.915 51.8231C69.0283 52.1717 69.0283 52.5473 68.915 52.896C68.7862 53.2923 68.4425 53.6361 67.7551 54.3235Z" stroke="black" stroke-width="2" stroke-linecap="round" stroke-linejoin="round"/>
<path d="M47.1902 21.949L59.7168 34.2879L23.7924 70.4248L7.26338 74.8288L11.4631 58.4924L47.1902 21.949Z" fill="#FCD638"/>
<path d="M56.4465 13L69 25.529M6.23242 75.6452L10.2383 60.9858C10.4996 60.0294 10.6303 59.5512 10.8309 59.1053C11.009 58.7093 11.2278 58.3329 11.4839 57.9821C11.7723 57.5871 12.1235 57.2366 12.8259 56.5356L45.256 24.1687C45.8775 23.5484 46.1882 23.2383 46.5465 23.1221C46.8616 23.0199 47.2011 23.0199 47.5163 23.1221C47.8746 23.2383 48.1853 23.5484 48.8067 24.1687L57.8095 33.154C58.431 33.7742 58.7417 34.0843 58.8581 34.4419C58.9605 34.7564 58.9605 35.0952 58.8581 35.4098C58.7417 35.7674 58.431 36.0775 57.8095 36.6977L25.3794 69.0646C24.677 69.7656 24.3259 70.1161 23.93 70.404C23.5785 70.6595 23.2014 70.878 22.8047 71.0557C22.3579 71.256 21.8787 71.3864 20.9205 71.6472L6.23242 75.6452Z" stroke="black" stroke-width="2" stroke-linecap="round" stroke-linejoin="round"/>
</svg>
