<svg width="621" height="666" viewBox="0 0 621 666" fill="none" xmlns="http://www.w3.org/2000/svg">
<rect width="621" height="666" fill="white"/>
<path d="M45.5 664.499L45.5 552.246M45 551.745H188M187.5 552.246V536.21M188 536.711H182M182.5 536.21V509.149M182 509.65H23M23.5 509.149L23.5 305.691M24 306.192H68M67.5 305.691L67.5 197.447M67 196.946H347M346.5 197.447V132.3M347 132.801H334M334.5 132.3V184.418M335 184.919L67 184.919M67.5 184.418L67.5 48.1106M67 48.6117H53M52.5 49.1129V1M334.5 1V43.0993M347.5 1V43.0993M348 43.6004H334M594.5 1V650.467M595 650.968H561M561.5 650.467V664.5M386.5 664.499V650.467M387 650.968H350M350.5 650.467V509.149M351 509.65H291M291.5 509.149V536.21M292 536.711H286M308 552.747H286M286.5 536.21V553.248M308.5 552.246V664.5" stroke="black"/>
<path d="M438.31 39V18H447.04C449.26 18 451 18.46 452.26 19.38C453.54 20.28 454.18 21.61 454.18 23.37C454.18 25.11 453.57 26.43 452.35 27.33C451.13 28.21 449.53 28.65 447.55 28.65L448.06 27.9C450.4 27.9 452.18 28.36 453.4 29.28C454.62 30.2 455.23 31.55 455.23 33.33C455.23 35.13 454.59 36.53 453.31 37.53C452.05 38.51 450.15 39 447.61 39H438.31ZM440.5 37.23H447.61C449.39 37.23 450.74 36.9 451.66 36.24C452.58 35.58 453.04 34.56 453.04 33.18C453.04 31.82 452.58 30.82 451.66 30.18C450.74 29.54 449.39 29.22 447.61 29.22H440.5V37.23ZM440.5 27.51H446.92C448.54 27.51 449.78 27.19 450.64 26.55C451.52 25.89 451.96 24.92 451.96 23.64C451.96 22.36 451.52 21.4 450.64 20.76C449.78 20.1 448.54 19.77 446.92 19.77H440.5V27.51ZM457.69 39L464.35 30.36L464.32 31.41L457.99 23.25H460.39L465.58 30L464.68 29.97L469.87 23.25H472.21L465.82 31.5L465.85 30.36L472.57 39H470.14L464.65 31.8L465.49 31.92L460.09 39H457.69ZM481.985 39.15C480.465 39.15 479.095 38.81 477.875 38.13C476.675 37.43 475.725 36.48 475.025 35.28C474.325 34.06 473.975 32.67 473.975 31.11C473.975 29.53 474.325 28.14 475.025 26.94C475.725 25.74 476.675 24.8 477.875 24.12C479.075 23.44 480.445 23.1 481.985 23.1C483.545 23.1 484.925 23.44 486.125 24.12C487.345 24.8 488.295 25.74 488.975 26.94C489.675 28.14 490.025 29.53 490.025 31.11C490.025 32.67 489.675 34.06 488.975 35.28C488.295 36.48 487.345 37.43 486.125 38.13C484.905 38.81 483.525 39.15 481.985 39.15ZM481.985 37.26C483.125 37.26 484.135 37.01 485.015 36.51C485.895 35.99 486.585 35.27 487.085 34.35C487.605 33.41 487.865 32.33 487.865 31.11C487.865 29.87 487.605 28.79 487.085 27.87C486.585 26.95 485.895 26.24 485.015 25.74C484.135 25.22 483.135 24.96 482.015 24.96C480.895 24.96 479.895 25.22 479.015 25.74C478.135 26.24 477.435 26.95 476.915 27.87C476.395 28.79 476.135 29.87 476.135 31.11C476.135 32.33 476.395 33.41 476.915 34.35C477.435 35.27 478.135 35.99 479.015 36.51C479.895 37.01 480.885 37.26 481.985 37.26ZM505.289 37.98V25.11H497.699L497.519 28.62C497.479 29.68 497.409 30.72 497.309 31.74C497.229 32.76 497.079 33.7 496.859 34.56C496.659 35.4 496.369 36.09 495.989 36.63C495.609 37.15 495.119 37.45 494.519 37.53L492.389 37.14C493.009 37.16 493.519 36.94 493.919 36.48C494.319 36 494.629 35.35 494.849 34.53C495.069 33.71 495.229 32.78 495.329 31.74C495.429 30.68 495.509 29.6 495.569 28.5L495.779 23.25H507.419V37.98H505.289ZM491.729 42.81V37.14H509.879V42.81H507.869V39H493.739V42.81H491.729Z" fill="#939598"/>
</svg>
