<svg width="621" height="666" viewBox="0 0 621 666" fill="none" xmlns="http://www.w3.org/2000/svg">
<g clip-path="url(#clip0_1150_257)">
<rect width="621" height="666" fill="white"/>
<path d="M68.3829 50.5119L68.3829 514.212M47.5556 1.01024L47.5556 514.212M230.836 1.01024V20M222.505 19.1945V121.229M223 121.5H209.5M231 19.5H222M210.008 50.2721V121.229M209.661 50.7645L68.0358 50.7645M68.7855 285.645H208.419M207.926 285.898V181.843M206.884 181.59H222.158M221.116 181.843V299M221.643 299H68.3829M68.0358 513.959H220.769M221.116 513.201V542.498M220.769 541.741H90.2515M90.5987 541.488L90.5986 644.532M90.0978 644.28H103.442M103.095 643.771V665.747M393.983 665.747V647.563M394.476 647.816H351.827M352.328 647.563V514.212M352.675 514.464H317.963M318.31 514.212V645.543M318.811 645.795H302.55M303.037 645.543V665.747M598.09 665.747L598.09 198.007M598.437 198.259H525.385M525.889 198.007V168.71M526.236 168.962H374.723M375.238 168.71V187.904M375.735 188.157H337.92M338.443 187.904V19.1945M339 19.5H332.5M333 20V1M365.519 0V149.515M365.172 149.263H620.653M102.748 666H0M47.2085 513.454H0M621 148.505L621 665.747" stroke="black"/>
<path d="M247.31 39V18H256.04C258.26 18 260 18.46 261.26 19.38C262.54 20.28 263.18 21.61 263.18 23.37C263.18 25.11 262.57 26.43 261.35 27.33C260.13 28.21 258.53 28.65 256.55 28.65L257.06 27.9C259.4 27.9 261.18 28.36 262.4 29.28C263.62 30.2 264.23 31.55 264.23 33.33C264.23 35.13 263.59 36.53 262.31 37.53C261.05 38.51 259.15 39 256.61 39H247.31ZM249.5 37.23H256.61C258.39 37.23 259.74 36.9 260.66 36.24C261.58 35.58 262.04 34.56 262.04 33.18C262.04 31.82 261.58 30.82 260.66 30.18C259.74 29.54 258.39 29.22 256.61 29.22H249.5V37.23ZM249.5 27.51H255.92C257.54 27.51 258.78 27.19 259.64 26.55C260.52 25.89 260.96 24.92 260.96 23.64C260.96 22.36 260.52 21.4 259.64 20.76C258.78 20.1 257.54 19.77 255.92 19.77H249.5V27.51ZM266.69 39L273.35 30.36L273.32 31.41L266.99 23.25H269.39L274.58 30L273.68 29.97L278.87 23.25H281.21L274.82 31.5L274.85 30.36L281.57 39H279.14L273.65 31.8L274.49 31.92L269.09 39H266.69ZM290.985 39.15C289.465 39.15 288.095 38.81 286.875 38.13C285.675 37.43 284.725 36.48 284.025 35.28C283.325 34.06 282.975 32.67 282.975 31.11C282.975 29.53 283.325 28.14 284.025 26.94C284.725 25.74 285.675 24.8 286.875 24.12C288.075 23.44 289.445 23.1 290.985 23.1C292.545 23.1 293.925 23.44 295.125 24.12C296.345 24.8 297.295 25.74 297.975 26.94C298.675 28.14 299.025 29.53 299.025 31.11C299.025 32.67 298.675 34.06 297.975 35.28C297.295 36.48 296.345 37.43 295.125 38.13C293.905 38.81 292.525 39.15 290.985 39.15ZM290.985 37.26C292.125 37.26 293.135 37.01 294.015 36.51C294.895 35.99 295.585 35.27 296.085 34.35C296.605 33.41 296.865 32.33 296.865 31.11C296.865 29.87 296.605 28.79 296.085 27.87C295.585 26.95 294.895 26.24 294.015 25.74C293.135 25.22 292.135 24.96 291.015 24.96C289.895 24.96 288.895 25.22 288.015 25.74C287.135 26.24 286.435 26.95 285.915 27.87C285.395 28.79 285.135 29.87 285.135 31.11C285.135 32.33 285.395 33.41 285.915 34.35C286.435 35.27 287.135 35.99 288.015 36.51C288.895 37.01 289.885 37.26 290.985 37.26ZM314.289 37.98V25.11H306.699L306.519 28.62C306.479 29.68 306.409 30.72 306.309 31.74C306.229 32.76 306.079 33.7 305.859 34.56C305.659 35.4 305.369 36.09 304.989 36.63C304.609 37.15 304.119 37.45 303.519 37.53L301.389 37.14C302.009 37.16 302.519 36.94 302.919 36.48C303.319 36 303.629 35.35 303.849 34.53C304.069 33.71 304.229 32.78 304.329 31.74C304.429 30.68 304.509 29.6 304.569 28.5L304.779 23.25H316.419V37.98H314.289ZM300.729 42.81V37.14H318.879V42.81H316.869V39H302.739V42.81H300.729Z" fill="#939598"/>
</g>
<defs>
<clipPath id="clip0_1150_257">
<rect width="621" height="666" fill="white"/>
</clipPath>
</defs>
</svg>
