<svg width="621" height="666" viewBox="0 0 621 666" fill="none" xmlns="http://www.w3.org/2000/svg">
<g clip-path="url(#clip0_1150_279)">
<rect width="621" height="666" fill="white"/>
<path d="M69.3829 50.5119V50.7645M69.3829 50.7645L69.3829 299M69.3829 50.7645L210.661 50.7645M69.3829 50.7645H69.0358M69.3829 299L69.3829 513.959M69.3829 299H222.116M69.3829 513.959V514.212M69.3829 513.959H69.0358M69.3829 513.959H221.769M48.5556 1.01024L48.5556 514.212M231.836 1.01024V19.5M231.836 19.5V20M231.836 19.5H232M231.836 19.5H223.505M223.505 19.1945V19.5M223.505 19.5V121.229M223.505 19.5H223M224 121.5H210.5M211.008 50.2721V121.229M69.7855 285.645H208.926M208.926 285.645H209.419M208.926 285.645V285.898M208.926 285.645V181.843M207.884 181.59H223.158M222.116 181.843V299M222.116 299H222.643M222.116 513.201V542.498M221.769 541.741H91.5987M91.5987 541.741H91.2515M91.5987 541.741V541.488M91.5987 541.741L91.5986 644.28M91.5986 644.28V644.532M91.5986 644.28H91.0978M91.5986 644.28H104.095M104.095 644.28H104.442M104.095 644.28V643.771M104.095 644.28V665.747M394.983 665.747V647.816M394.983 647.816V647.563M394.983 647.816H395.476M394.983 647.816H352.827M353.328 647.563V449M353.328 449H353.5M353.328 449H319.31M319.31 449H318.788M319.31 449V645.543M319.811 645.795H304.037M304.037 645.795H303.55M304.037 645.795V645.543M304.037 645.795V665.747M599.09 665.747V477M599.437 198.259H526.385M526.889 198.007V168.962M526.889 168.962V168.71M526.889 168.962H527.236M526.889 168.962H376.238M376.238 168.962H375.723M376.238 168.962V168.71M376.238 168.962V187.904M376.735 188.157H338.92M339.443 187.904V19.5M339.443 19.5V19.1945M339.443 19.5H340M339.443 19.5H334M334 19.5H333.5M334 19.5V20M334 19.5V1M366.519 0V149.263M366.519 149.263V149.515M366.519 149.263H366.172M366.519 149.263H621.653M103.748 666H1M48.2085 513.454H1M622 148.505L622 665.747M599 449.5H444M599 477.5H444M444.5 450V478M599.5 450V197.762" stroke="black"/>
<path d="M248.31 39V18H257.04C259.26 18 261 18.46 262.26 19.38C263.54 20.28 264.18 21.61 264.18 23.37C264.18 25.11 263.57 26.43 262.35 27.33C261.13 28.21 259.53 28.65 257.55 28.65L258.06 27.9C260.4 27.9 262.18 28.36 263.4 29.28C264.62 30.2 265.23 31.55 265.23 33.33C265.23 35.13 264.59 36.53 263.31 37.53C262.05 38.51 260.15 39 257.61 39H248.31ZM250.5 37.23H257.61C259.39 37.23 260.74 36.9 261.66 36.24C262.58 35.58 263.04 34.56 263.04 33.18C263.04 31.82 262.58 30.82 261.66 30.18C260.74 29.54 259.39 29.22 257.61 29.22H250.5V37.23ZM250.5 27.51H256.92C258.54 27.51 259.78 27.19 260.64 26.55C261.52 25.89 261.96 24.92 261.96 23.64C261.96 22.36 261.52 21.4 260.64 20.76C259.78 20.1 258.54 19.77 256.92 19.77H250.5V27.51ZM267.69 39L274.35 30.36L274.32 31.41L267.99 23.25H270.39L275.58 30L274.68 29.97L279.87 23.25H282.21L275.82 31.5L275.85 30.36L282.57 39H280.14L274.65 31.8L275.49 31.92L270.09 39H267.69ZM291.985 39.15C290.465 39.15 289.095 38.81 287.875 38.13C286.675 37.43 285.725 36.48 285.025 35.28C284.325 34.06 283.975 32.67 283.975 31.11C283.975 29.53 284.325 28.14 285.025 26.94C285.725 25.74 286.675 24.8 287.875 24.12C289.075 23.44 290.445 23.1 291.985 23.1C293.545 23.1 294.925 23.44 296.125 24.12C297.345 24.8 298.295 25.74 298.975 26.94C299.675 28.14 300.025 29.53 300.025 31.11C300.025 32.67 299.675 34.06 298.975 35.28C298.295 36.48 297.345 37.43 296.125 38.13C294.905 38.81 293.525 39.15 291.985 39.15ZM291.985 37.26C293.125 37.26 294.135 37.01 295.015 36.51C295.895 35.99 296.585 35.27 297.085 34.35C297.605 33.41 297.865 32.33 297.865 31.11C297.865 29.87 297.605 28.79 297.085 27.87C296.585 26.95 295.895 26.24 295.015 25.74C294.135 25.22 293.135 24.96 292.015 24.96C290.895 24.96 289.895 25.22 289.015 25.74C288.135 26.24 287.435 26.95 286.915 27.87C286.395 28.79 286.135 29.87 286.135 31.11C286.135 32.33 286.395 33.41 286.915 34.35C287.435 35.27 288.135 35.99 289.015 36.51C289.895 37.01 290.885 37.26 291.985 37.26ZM315.289 37.98V25.11H307.699L307.519 28.62C307.479 29.68 307.409 30.72 307.309 31.74C307.229 32.76 307.079 33.7 306.859 34.56C306.659 35.4 306.369 36.09 305.989 36.63C305.609 37.15 305.119 37.45 304.519 37.53L302.389 37.14C303.009 37.16 303.519 36.94 303.919 36.48C304.319 36 304.629 35.35 304.849 34.53C305.069 33.71 305.229 32.78 305.329 31.74C305.429 30.68 305.509 29.6 305.569 28.5L305.779 23.25H317.419V37.98H315.289ZM301.729 42.81V37.14H319.879V42.81H317.869V39H303.739V42.81H301.729Z" fill="#939598"/>
</g>
<defs>
<clipPath id="clip0_1150_279">
<rect width="621" height="666" fill="white"/>
</clipPath>
</defs>
</svg>
